<mxfile host="app.diagrams.net" modified="2023-10-26T20:54:24.042Z" agent="Mozilla/5.0 (Windows NT 10.0; Win64; x64) AppleWebKit/537.36 (KHTML, like Gecko) Chrome/118.0.0.0 Safari/537.36" version="22.0.8" etag="W8bL8W_sNxuOI_XpjI-s" type="github">
  <diagram name="Pagina-1" id="x3bbSHUMUd0W-aZILfi2">
    <mxGraphModel>
      <root>
        <mxCell id="0" />
        <mxCell id="1" parent="0" />
      </root>
    </mxGraphModel>
  </diagram>
</mxfile>
